<svg width="143" height="57" viewBox="0 0 143 57" fill="none" xmlns="http://www.w3.org/2000/svg">
<path d="M27.43 38.39L34.36 20.9H43.12V22.1C42.46 22.1 41.92 22.17 41.5 22.31C41.1 22.43 40.79 22.66 40.57 23C40.35 23.34 40.2 23.81 40.12 24.41C40.06 24.99 40.03 25.73 40.03 26.63V38.27C40.03 39.27 40.07 40.06 40.15 40.64C40.23 41.22 40.39 41.67 40.63 41.99C40.87 42.31 41.21 42.52 41.65 42.62C42.11 42.72 42.71 42.78 43.45 42.8V44H32.17V42.8C32.91 42.78 33.5 42.72 33.94 42.62C34.4 42.5 34.75 42.29 34.99 41.99C35.25 41.69 35.42 41.27 35.5 40.73C35.58 40.17 35.62 39.42 35.62 38.48V24.44H35.47L27.4 44.3H25.18L16.84 24.44H16.72V38.27C16.72 39.27 16.76 40.06 16.84 40.64C16.92 41.22 17.08 41.67 17.32 41.99C17.56 42.31 17.9 42.52 18.34 42.62C18.8 42.72 19.4 42.78 20.14 42.8V44H10.9V42.8C11.64 42.78 12.24 42.72 12.7 42.62C13.16 42.5 13.51 42.29 13.75 41.99C14.01 41.69 14.18 41.27 14.26 40.73C14.34 40.17 14.38 39.42 14.38 38.48V26.42C14.38 25.58 14.34 24.88 14.26 24.32C14.18 23.76 14.03 23.32 13.81 23C13.59 22.66 13.27 22.43 12.85 22.31C12.45 22.17 11.91 22.1 11.23 22.1V20.9H20.32L27.31 38.39H27.43ZM51.9498 48.71C51.7298 49.15 51.4498 49.56 51.1098 49.94C50.7898 50.32 50.4198 50.64 49.9998 50.9C49.5998 51.18 49.1798 51.4 48.7398 51.56C48.2998 51.72 47.8598 51.8 47.4198 51.8C46.7598 51.8 46.2298 51.64 45.8298 51.32C45.4298 51 45.2298 50.57 45.2298 50.03C45.2298 49.53 45.3998 49.14 45.7398 48.86C46.0998 48.58 46.6698 48.41 47.4498 48.35C49.2298 48.21 50.3798 47.65 50.8998 46.67L51.7098 45.11L46.3998 31.97C46.1598 31.39 45.9498 30.93 45.7698 30.59C45.6098 30.25 45.4298 29.99 45.2298 29.81C45.0298 29.61 44.7998 29.48 44.5398 29.42C44.2798 29.36 43.9598 29.32 43.5798 29.3V28.1H52.6698V29.3C51.8898 29.3 51.3398 29.38 51.0198 29.54C50.7198 29.68 50.5698 29.95 50.5698 30.35C50.5698 30.51 50.5898 30.7 50.6298 30.92C50.6898 31.12 50.7598 31.33 50.8398 31.55L53.8998 40.31H54.0198L56.5998 34.46C56.8598 33.84 57.0798 33.33 57.2598 32.93C57.4398 32.51 57.5698 32.16 57.6498 31.88C57.7498 31.58 57.8198 31.34 57.8598 31.16C57.8998 30.98 57.9198 30.8 57.9198 30.62C57.9198 30.1 57.7698 29.75 57.4698 29.57C57.1898 29.39 56.6098 29.3 55.7298 29.3V28.1H62.9598V29.3C62.5598 29.3 62.2198 29.36 61.9398 29.48C61.6598 29.58 61.3698 29.8 61.0698 30.14C60.7898 30.48 60.4698 30.99 60.1098 31.67C59.7698 32.33 59.3398 33.21 58.8198 34.31L51.9498 48.71ZM62.9627 44V42.8C63.6427 42.78 64.1827 42.72 64.5827 42.62C65.0027 42.52 65.3227 42.35 65.5427 42.11C65.7827 41.87 65.9427 41.53 66.0227 41.09C66.1027 40.65 66.1427 40.08 66.1427 39.38V25.52C66.1427 24.82 66.1127 24.26 66.0527 23.84C65.9927 23.4 65.8627 23.06 65.6627 22.82C65.4827 22.56 65.2227 22.39 64.8827 22.31C64.5627 22.21 64.1327 22.14 63.5927 22.1V20.9H73.2227C76.2427 20.9 78.5627 21.39 80.1827 22.37C81.8227 23.33 82.6427 24.71 82.6427 26.51C82.6427 28.89 80.9327 30.57 77.5127 31.55V31.67C78.6127 31.67 79.6027 31.83 80.4827 32.15C81.3827 32.45 82.1427 32.88 82.7627 33.44C83.3827 34 83.8627 34.66 84.2027 35.42C84.5427 36.18 84.7127 37.01 84.7127 37.91C84.7127 38.93 84.4627 39.82 83.9627 40.58C83.4827 41.34 82.7827 41.98 81.8627 42.5C80.0827 43.5 77.6327 44 74.5127 44H62.9627ZM74.7227 42.17C77.9427 42.17 79.5527 40.72 79.5527 37.82C79.5527 36.04 78.9727 34.74 77.8127 33.92C77.2127 33.5 76.4327 33.2 75.4727 33.02C74.5327 32.84 73.3727 32.75 71.9927 32.75H70.5527V38.75C70.5527 39.99 70.8727 40.87 71.5127 41.39C72.1527 41.91 73.2227 42.17 74.7227 42.17ZM72.3227 30.95C73.2227 30.95 74.0027 30.87 74.6627 30.71C75.3227 30.53 75.8827 30.28 76.3427 29.96C77.3027 29.3 77.7827 28.27 77.7827 26.87C77.7827 25.41 77.4227 24.36 76.7027 23.72C75.9827 23.06 74.8227 22.73 73.2227 22.73H71.0927C70.7327 22.73 70.5527 22.9 70.5527 23.24V30.95H72.3227ZM93.1424 39.08C93.1424 39.88 93.1724 40.52 93.2324 41C93.2924 41.48 93.4124 41.85 93.5924 42.11C93.7724 42.37 94.0324 42.55 94.3724 42.65C94.7124 42.73 95.1724 42.78 95.7524 42.8V44H86.3024V42.8C86.8624 42.78 87.3124 42.72 87.6524 42.62C88.0124 42.5 88.2824 42.32 88.4624 42.08C88.6624 41.82 88.7924 41.47 88.8524 41.03C88.9324 40.57 88.9724 39.99 88.9724 39.29V26.9C88.9724 25.74 88.9524 24.79 88.9124 24.05C88.8724 23.29 88.8224 22.77 88.7624 22.49C88.6624 21.99 88.4324 21.66 88.0724 21.5C87.7324 21.34 87.1024 21.26 86.1824 21.26V20.24L93.1424 19.1V39.08ZM106.236 27.8C107.436 27.8 108.566 28.01 109.626 28.43C110.706 28.83 111.646 29.39 112.446 30.11C113.266 30.83 113.906 31.69 114.366 32.69C114.846 33.67 115.086 34.75 115.086 35.93C115.086 37.15 114.846 38.27 114.366 39.29C113.906 40.31 113.266 41.19 112.446 41.93C111.646 42.67 110.706 43.25 109.626 43.67C108.566 44.09 107.436 44.3 106.236 44.3C105.056 44.3 103.936 44.1 102.876 43.7C101.816 43.28 100.886 42.7 100.086 41.96C99.2865 41.22 98.6565 40.34 98.1965 39.32C97.7365 38.28 97.5065 37.15 97.5065 35.93C97.5065 34.75 97.7365 33.66 98.1965 32.66C98.6565 31.66 99.2865 30.8 100.086 30.08C100.886 29.36 101.816 28.8 102.876 28.4C103.936 28 105.056 27.8 106.236 27.8ZM106.236 29.54C105.636 29.54 105.086 29.7 104.586 30.02C104.086 30.32 103.656 30.75 103.296 31.31C102.956 31.87 102.686 32.55 102.486 33.35C102.306 34.13 102.216 35 102.216 35.96C102.216 36.96 102.306 37.86 102.486 38.66C102.686 39.46 102.956 40.14 103.296 40.7C103.656 41.26 104.076 41.7 104.556 42.02C105.056 42.32 105.616 42.47 106.236 42.47C106.856 42.47 107.416 42.32 107.916 42.02C108.436 41.7 108.876 41.26 109.236 40.7C109.596 40.12 109.876 39.43 110.076 38.63C110.276 37.83 110.376 36.94 110.376 35.96C110.376 35 110.276 34.13 110.076 33.35C109.876 32.57 109.596 31.9 109.236 31.34C108.876 30.76 108.436 30.32 107.916 30.02C107.416 29.7 106.856 29.54 106.236 29.54ZM123.041 40.76C123.581 40.8 124.051 40.84 124.451 40.88C124.871 40.92 125.261 40.97 125.621 41.03C126.001 41.07 126.371 41.12 126.731 41.18C127.111 41.22 127.511 41.27 127.931 41.33C129.491 41.55 130.711 42.14 131.591 43.1C132.491 44.04 132.941 45.21 132.941 46.61C132.941 48.31 132.241 49.6 130.841 50.48C129.441 51.36 127.381 51.8 124.661 51.8C122.161 51.8 120.231 51.43 118.871 50.69C117.531 49.97 116.861 48.94 116.861 47.6C116.861 46.56 117.131 45.77 117.671 45.23C118.211 44.71 118.891 44.45 119.711 44.45C120.231 44.45 120.731 44.55 121.211 44.75C121.711 44.97 122.131 45.28 122.471 45.68C121.951 45.78 121.521 46.01 121.181 46.37C120.861 46.75 120.701 47.19 120.701 47.69C120.701 48.49 121.051 49.1 121.751 49.52C122.471 49.96 123.521 50.18 124.901 50.18C127.901 50.18 129.401 49.23 129.401 47.33C129.401 46.65 129.171 46.06 128.711 45.56C128.271 45.08 127.631 44.79 126.791 44.69L121.541 43.97C119.321 43.67 118.211 42.68 118.211 41C118.211 40.18 118.471 39.51 118.991 38.99C119.531 38.47 120.291 38.11 121.271 37.91V37.79C120.811 37.61 120.391 37.36 120.011 37.04C119.651 36.72 119.331 36.35 119.051 35.93C118.771 35.51 118.551 35.06 118.391 34.58C118.251 34.08 118.181 33.57 118.181 33.05C118.181 32.31 118.331 31.62 118.631 30.98C118.951 30.32 119.381 29.76 119.921 29.3C120.481 28.84 121.131 28.48 121.871 28.22C122.631 27.94 123.451 27.8 124.331 27.8C125.191 27.8 126.031 27.93 126.851 28.19C127.671 28.45 128.371 28.81 128.951 29.27C129.411 28.99 129.811 28.76 130.151 28.58C130.491 28.38 130.801 28.23 131.081 28.13C131.381 28.01 131.651 27.93 131.891 27.89C132.131 27.83 132.371 27.8 132.611 27.8C133.371 27.8 133.981 27.97 134.441 28.31C134.921 28.65 135.161 29.1 135.161 29.66C135.161 30.08 135.031 30.43 134.771 30.71C134.511 30.97 134.171 31.1 133.751 31.1C133.451 31.1 133.211 31.04 133.031 30.92C132.851 30.78 132.671 30.63 132.491 30.47C132.331 30.29 132.161 30.14 131.981 30.02C131.801 29.88 131.561 29.81 131.261 29.81C130.841 29.81 130.441 30.08 130.061 30.62C130.261 30.96 130.401 31.33 130.481 31.73C130.561 32.11 130.601 32.56 130.601 33.08C130.601 33.84 130.481 34.54 130.241 35.18C130.001 35.82 129.621 36.39 129.101 36.89C128.601 37.37 127.951 37.78 127.151 38.12C126.351 38.46 125.381 38.69 124.241 38.81C123.281 38.91 122.611 39.04 122.231 39.2C121.871 39.36 121.691 39.6 121.691 39.92C121.691 40.4 122.141 40.68 123.041 40.76ZM124.481 37.1C125.121 37.1 125.621 36.76 125.981 36.08C126.341 35.4 126.521 34.45 126.521 33.23C126.521 31.99 126.341 31.04 125.981 30.38C125.621 29.7 125.111 29.36 124.451 29.36C123.771 29.36 123.231 29.7 122.831 30.38C122.431 31.06 122.231 31.99 122.231 33.17C122.231 34.37 122.431 35.33 122.831 36.05C123.251 36.75 123.801 37.1 124.481 37.1ZM135.868 42.08C135.868 41.44 136.078 40.9 136.498 40.46C136.938 40 137.478 39.77 138.118 39.77C138.778 39.77 139.328 40 139.768 40.46C140.208 40.9 140.428 41.44 140.428 42.08C140.428 42.7 140.208 43.23 139.768 43.67C139.328 44.09 138.778 44.3 138.118 44.3C137.478 44.3 136.938 44.09 136.498 43.67C136.078 43.23 135.868 42.7 135.868 42.08Z" fill="#8E44AD"/>
<rect width="63" height="57" fill="#8E44AD"/>
<path d="M27.43 38.39L34.36 20.9H43.12V22.1C42.46 22.1 41.92 22.17 41.5 22.31C41.1 22.43 40.79 22.66 40.57 23C40.35 23.34 40.2 23.81 40.12 24.41C40.06 24.99 40.03 25.73 40.03 26.63V38.27C40.03 39.27 40.07 40.06 40.15 40.64C40.23 41.22 40.39 41.67 40.63 41.99C40.87 42.31 41.21 42.52 41.65 42.62C42.11 42.72 42.71 42.78 43.45 42.8V44H32.17V42.8C32.91 42.78 33.5 42.72 33.94 42.62C34.4 42.5 34.75 42.29 34.99 41.99C35.25 41.69 35.42 41.27 35.5 40.73C35.58 40.17 35.62 39.42 35.62 38.48V24.44H35.47L27.4 44.3H25.18L16.84 24.44H16.72V38.27C16.72 39.27 16.76 40.06 16.84 40.64C16.92 41.22 17.08 41.67 17.32 41.99C17.56 42.31 17.9 42.52 18.34 42.62C18.8 42.72 19.4 42.78 20.14 42.8V44H10.9V42.8C11.64 42.78 12.24 42.72 12.7 42.62C13.16 42.5 13.51 42.29 13.75 41.99C14.01 41.69 14.18 41.27 14.26 40.73C14.34 40.17 14.38 39.42 14.38 38.48V26.42C14.38 25.58 14.34 24.88 14.26 24.32C14.18 23.76 14.03 23.32 13.81 23C13.59 22.66 13.27 22.43 12.85 22.31C12.45 22.17 11.91 22.1 11.23 22.1V20.9H20.32L27.31 38.39H27.43ZM51.9498 48.71C51.7298 49.15 51.4498 49.56 51.1098 49.94C50.7898 50.32 50.4198 50.64 49.9998 50.9C49.5998 51.18 49.1798 51.4 48.7398 51.56C48.2998 51.72 47.8598 51.8 47.4198 51.8C46.7598 51.8 46.2298 51.64 45.8298 51.32C45.4298 51 45.2298 50.57 45.2298 50.03C45.2298 49.53 45.3998 49.14 45.7398 48.86C46.0998 48.58 46.6698 48.41 47.4498 48.35C49.2298 48.21 50.3798 47.65 50.8998 46.67L51.7098 45.11L46.3998 31.97C46.1598 31.39 45.9498 30.93 45.7698 30.59C45.6098 30.25 45.4298 29.99 45.2298 29.81C45.0298 29.61 44.7998 29.48 44.5398 29.42C44.2798 29.36 43.9598 29.32 43.5798 29.3V28.1H52.6698V29.3C51.8898 29.3 51.3398 29.38 51.0198 29.54C50.7198 29.68 50.5698 29.95 50.5698 30.35C50.5698 30.51 50.5898 30.7 50.6298 30.92C50.6898 31.12 50.7598 31.33 50.8398 31.55L53.8998 40.31H54.0198L56.5998 34.46C56.8598 33.84 57.0798 33.33 57.2598 32.93C57.4398 32.51 57.5698 32.16 57.6498 31.88C57.7498 31.58 57.8198 31.34 57.8598 31.16C57.8998 30.98 57.9198 30.8 57.9198 30.62C57.9198 30.1 57.7698 29.75 57.4698 29.57C57.1898 29.39 56.6098 29.3 55.7298 29.3V28.1H62.9598V29.3C62.5598 29.3 62.2198 29.36 61.9398 29.48C61.6598 29.58 61.3698 29.8 61.0698 30.14C60.7898 30.48 60.4698 30.99 60.1098 31.67C59.7698 32.33 59.3398 33.21 58.8198 34.31L51.9498 48.71Z" fill="white"/>
</svg>
